<svg width="168" height="28" viewBox="0 0 168 28" fill="none" xmlns="http://www.w3.org/2000/svg">
<path d="M8.84039 7.22362C6.05601 7.22362 4.84686 9.6747 4.08374 13.3488L4.03217 13.3001C4.42405 10.6649 4.55553 8.63082 4.66124 7.48459H0.721856L0.562012 9.12717H2.66319C2.37701 12.7501 2.1424 16.8693 1.59069 20.9374H3.58616C4.55811 12.1258 6.26741 9.15276 8.92031 9.15276C9.23484 9.15276 9.54937 9.20137 9.81234 9.25766L10.1294 7.35411C9.70662 7.25926 9.2738 7.21545 8.84039 7.22362ZM22.5741 7.22362C20.4445 7.22362 19.0266 8.02956 17.8458 9.41117C16.6624 10.8184 15.9277 12.8012 15.9277 15.15C15.9277 19.5046 17.6086 21.1983 20.9447 21.1983C22.8654 21.1983 24.3891 20.5997 25.0439 20.2082L25.2811 18.2253C24.0488 19.0057 22.6308 19.4253 21.4732 19.4253C19.3978 19.4253 18.0314 18.4607 18.0314 15.7205C22.6024 15.2037 26.3072 13.4792 26.3072 10.2708C26.3072 8.73572 25.1806 7.22362 22.5741 7.22362ZM18.0314 14.2647C18.3202 11.3403 19.7124 8.8662 22.2106 8.8662C23.6028 8.8662 24.2035 9.6747 24.2035 10.4064C24.2035 12.7219 21.7878 13.7939 18.0314 14.2647Z" fill="black"/>
<path d="M38.2282 0.882812H33.7603L33.603 2.52795H36.0213L34.3894 20.9392H38.4396L38.5943 19.294H36.5988L38.2282 0.882812Z" fill="black"/>
<path d="M49.7035 0.675781C49.3075 0.679778 48.9288 0.837675 48.6488 1.11559C48.3687 1.3935 48.2096 1.76928 48.2056 2.16229C48.2056 2.96823 48.8888 3.6488 49.7035 3.6488C50.5182 3.6488 51.2014 2.96823 51.2014 2.16229C51.1974 1.76928 51.0383 1.3935 50.7582 1.11559C50.4782 0.837675 50.0995 0.679778 49.7035 0.675781ZM50.3351 7.48405H46.2076L46.0503 9.12407H48.154L47.0764 20.9394H51.0957L51.253 19.2968H49.2601L50.3351 7.48405ZM65.0949 7.22308C62.9654 7.22308 61.5474 8.02902 60.3666 9.41063C59.1833 10.8178 58.4485 12.8007 58.4485 15.1494C58.4485 19.5041 60.1295 21.1978 63.4656 21.1978C65.3837 21.1978 66.9074 20.5991 67.5648 20.2077L67.802 18.2248C66.567 19.0051 65.1491 19.4247 63.9889 19.4247C61.9135 19.4247 60.5471 18.4602 60.5471 15.72C65.1181 15.2032 68.8229 13.4787 68.8229 10.2703C68.8255 8.73517 67.6988 7.22308 65.0949 7.22308ZM60.5497 14.2642C60.8384 11.3398 62.2306 8.86566 64.7288 8.86566C66.121 8.86566 66.7243 9.67416 66.7243 10.4059C66.7243 12.7214 64.3086 13.7934 60.5497 14.2642ZM84.2143 0.675781C80.3007 0.675781 78.8286 2.44885 78.4857 5.96684L78.3285 7.48405H76.2531L76.119 9.12663H78.2202L77.3797 19.6601C77.0935 23.2088 76.6733 24.5904 75.9334 25.2173C75.2244 25.816 74.5412 26.0206 73.6182 26.0206C73.0407 26.0206 72.3317 25.9157 71.7001 25.6573L71.5738 27.4048C72.0997 27.589 73.0459 27.7988 73.9921 27.7988C75.2012 27.7988 76.382 27.3818 77.3565 26.471C78.7745 25.1149 79.1432 22.8711 79.3804 19.742L80.2208 9.12663H83.74L83.874 7.48405H80.3239L80.4838 6.04871C80.7983 3.12686 82.2962 2.31836 84.4773 2.31836C85.1863 2.31836 85.7922 2.42326 86.4496 2.63306L86.5836 1.01607C85.9494 0.752537 85.0316 0.675781 84.2143 0.675781ZM98.6596 2.36953C94.7976 2.36953 91.7219 4.11957 91.7219 7.71687C91.7219 10.6362 93.6142 11.8643 95.718 12.4604L98.9793 13.3738C100.949 13.9213 101.841 14.4944 101.841 15.9528C101.841 17.9126 100.289 18.954 97.9506 18.954C96.4811 18.954 95.1662 18.5907 94.6119 18.3041V15.8812H91.6703V20.287C93.2739 20.9112 96.5301 21.2515 97.8707 21.2515C102.23 21.2515 104.937 19.1126 104.937 15.4872C104.937 12.2813 102.602 11.1325 100.495 10.585L97.6593 9.85581C96.0016 9.43877 94.8182 8.89124 94.8182 7.29983C94.8182 5.89008 95.9474 4.66454 98.6802 4.66454C100.101 4.66454 101.047 4.95365 101.441 5.10717V7.29983H104.226V3.25734C102.839 2.86589 101.052 2.36953 98.6596 2.36953ZM123.402 2.68679H120.141L113.468 18.8005H111.891V20.9394H118.302V18.8005H116.41L118.119 14.2616H124.583L126.161 18.8005H124.48V20.9394H131.206V18.8005H129.577L123.402 2.68679ZM118.96 11.9666L120.984 6.80092C121.2 6.26218 121.366 5.70457 121.479 5.13531H121.533C121.61 5.52165 121.716 5.99498 122.005 6.80092L123.82 11.9666H118.96ZM145.958 2.68679H137.785V4.82317H139.706L139.6 18.803H137.785V20.9394H144.697V18.8005H142.568L142.622 13.164H144.2C145.066 13.164 145.458 13.4531 146.221 14.7554L148.745 19.0077C149.823 20.7808 150.532 20.9368 152.081 20.9368H153.79V18.8005H153.105C152.501 18.8005 152.001 18.5651 151.475 17.7054L149.48 14.3665C148.851 13.3226 148.165 12.463 147.141 12.3836V12.3325C149.48 12.0945 151.529 10.6643 151.529 7.50707C151.529 4.84875 149.743 2.68679 145.958 2.68679ZM142.622 10.8741L142.676 4.82317H145.117C147.247 4.82317 148.43 5.91822 148.43 7.82433C148.43 9.78161 146.981 10.8741 144.909 10.8741H142.622Z" fill="black"/>
<path d="M167.048 2.6875H160.267V4.82132H162.239L162.134 18.8012H160.267V20.9401H167.048V18.8012H165.075L165.181 4.82132H167.048V2.6875Z" fill="black"/>
</svg>
